<?xml version="1.0" encoding="UTF-8" standalone="no"?><svg xmlns="http://www.w3.org/2000/svg" xmlns:xlink="http://www.w3.org/1999/xlink" contentScriptType="application/ecmascript" contentStyleType="text/css" height="1529px" preserveAspectRatio="none" style="width:1060px;height:1529px;" version="1.1" viewBox="0 0 1060 1529" width="1060px" zoomAndPan="magnify"><defs/><g><text fill="#000000" font-family="Arial" font-size="18" lengthAdjust="spacingAndGlyphs" textLength="559" x="249.5" y="16.708">Cloud Honeypot - WireGuard - SIEM (OCI ARM64 - Zero Trust)</text><!--MD5=[8f5b229fc176886651a1c211aa908adc]
cluster OCI--><rect fill="#FFFFFF" height="1191" rx="6" ry="6" style="stroke: #444444; stroke-width: 1.5;" width="573" x="22" y="150.9531"/><text fill="#111111" font-family="Arial" font-size="14" font-weight="bold" lengthAdjust="spacingAndGlyphs" textLength="260" x="178.5" y="165.9482">Oracle Cloud Infrastructure (OCI)</text><text fill="#111111" font-family="Arial" font-size="14" font-weight="bold" lengthAdjust="spacingAndGlyphs" textLength="311" x="153" y="182.2451">Always Free Tier • ARM64 (Ampere A1)</text><text fill="#111111" font-family="Arial" font-size="14" font-weight="bold" lengthAdjust="spacingAndGlyphs" textLength="310" x="153.5" y="198.542">VCN: 10.0.1.0/24 • Subnet: 10.0.1.0/24</text><!--MD5=[75eca86a1d93a02e54353c68ff0ab2a0]
cluster PUB--><path d="M231,225.9531 L353,225.9531 A9,9 0 0 1 359,231.9531 L366,248.25 L565,248.25 A6,6 0 0 1 571,254.25 L571,911.9531 A6,6 0 0 1 565,917.9531 L231,917.9531 A6,6 0 0 1 225,911.9531 L225,231.9531 A6,6 0 0 1 231,225.9531 " fill="#FFFFFF" style="stroke: #000000; stroke-width: 1.5;"/><line style="stroke: #000000; stroke-width: 1.5;" x1="225" x2="366" y1="248.25" y2="248.25"/><text fill="#000000" font-family="Arial" font-size="14" font-weight="bold" lengthAdjust="spacingAndGlyphs" textLength="128" x="229" y="240.9482">Public Instances</text><!--MD5=[5e298b9aa1d2ff7f4e94cac4afb21f2f]
cluster PRIV--><path d="M86,981.9531 L316,981.9531 A9,9 0 0 1 322,987.9531 L329,1004.25 L402,1004.25 A6,6 0 0 1 408,1010.25 L408,1311.9531 A6,6 0 0 1 402,1317.9531 L86,1317.9531 A6,6 0 0 1 80,1311.9531 L80,987.9531 A6,6 0 0 1 86,981.9531 " fill="#FFFFFF" style="stroke: #000000; stroke-width: 1.5;"/><line style="stroke: #000000; stroke-width: 1.5;" x1="80" x2="329" y1="1004.25" y2="1004.25"/><text fill="#000000" font-family="Arial" font-size="14" font-weight="bold" lengthAdjust="spacingAndGlyphs" textLength="236" x="84" y="996.9482">Private Instance (No Public IP)</text><!--MD5=[94b3b673d5a236560eff806941c90c67]
entity Sensor--><rect fill="#FEFECE" height="284.75" rx="6" ry="6" style="stroke: #444444; stroke-width: 1.5;" width="221" x="264.5" y="284.9531"/><text fill="#111111" font-family="Arial" font-size="14" lengthAdjust="spacingAndGlyphs" textLength="201" x="274.5" y="307.9482">SENSOR - Honeypots (Public)</text><text fill="#111111" font-family="Arial" font-size="14" lengthAdjust="spacingAndGlyphs" textLength="188" x="280.5" y="340.542">OS: Oracle Linux 9 (ARM64)</text><text fill="#111111" font-family="Arial" font-size="14" lengthAdjust="spacingAndGlyphs" textLength="137" x="280.5" y="356.8389">Private IP: 10.0.1.37</text><text fill="#111111" font-family="Arial" font-size="14" lengthAdjust="spacingAndGlyphs" textLength="106" x="280.5" y="373.1357">Public IP: x.x.x.x</text><text fill="#111111" font-family="Arial" font-size="14" lengthAdjust="spacingAndGlyphs" textLength="0" x="284.5" y="389.4326"/><text fill="#111111" font-family="Arial" font-size="14" lengthAdjust="spacingAndGlyphs" textLength="145" x="280.5" y="405.7295">Exposed (honeypot):</text><text fill="#111111" font-family="Arial" font-size="14" lengthAdjust="spacingAndGlyphs" textLength="147" x="280.5" y="422.0264">- 22/TCP  Cowrie SSH</text><text fill="#111111" font-family="Arial" font-size="14" lengthAdjust="spacingAndGlyphs" textLength="145" x="280.5" y="438.3232">- 80/TCP  DVWA Web</text><text fill="#111111" font-family="Arial" font-size="14" lengthAdjust="spacingAndGlyphs" textLength="0" x="284.5" y="454.6201"/><text fill="#111111" font-family="Arial" font-size="14" lengthAdjust="spacingAndGlyphs" textLength="119" x="280.5" y="470.917">Admin (real SSH):</text><text fill="#111111" font-family="Arial" font-size="14" lengthAdjust="spacingAndGlyphs" textLength="187" x="280.5" y="487.2139">- 2222/TCP  (ONLY via VPN)</text><text fill="#111111" font-family="Arial" font-size="14" lengthAdjust="spacingAndGlyphs" textLength="0" x="284.5" y="503.5107"/><text fill="#111111" font-family="Arial" font-size="14" lengthAdjust="spacingAndGlyphs" textLength="74" x="280.5" y="519.8076">Telemetry:</text><text fill="#111111" font-family="Arial" font-size="14" lengthAdjust="spacingAndGlyphs" textLength="101" x="280.5" y="536.1045">- Wazuh Agent</text><text fill="#111111" font-family="Arial" font-size="14" lengthAdjust="spacingAndGlyphs" textLength="177" x="280.5" y="552.4014">- Docker: Cowrie + DVWA</text><line style="stroke: #444444; stroke-width: 1.0;" x1="265.5" x2="352.5" y1="319.3984" y2="319.3984"/><text fill="#111111" font-family="Arial" font-size="14" lengthAdjust="spacingAndGlyphs" text-decoration="line-through" textLength="5" x="352.5" y="323.7451">-</text><text fill="#111111" font-family="Arial" font-size="14" lengthAdjust="spacingAndGlyphs" text-decoration="line-through" textLength="5" x="357.5" y="323.7451">-</text><text fill="#111111" font-family="Arial" font-size="14" lengthAdjust="spacingAndGlyphs" text-decoration="line-through" textLength="5" x="362.5" y="323.7451">-</text><text fill="#111111" font-family="Arial" font-size="14" lengthAdjust="spacingAndGlyphs" text-decoration="line-through" textLength="5" x="367.5" y="323.7451">-</text><text fill="#111111" font-family="Arial" font-size="14" lengthAdjust="spacingAndGlyphs" text-decoration="line-through" textLength="5" x="372.5" y="323.7451">-</text><text fill="#111111" font-family="Arial" font-size="14" lengthAdjust="spacingAndGlyphs" textLength="20" x="377.5" y="323.7451">----</text><line style="stroke: #444444; stroke-width: 1.0;" x1="397.5" x2="484.5" y1="319.3984" y2="319.3984"/><!--MD5=[e49c185d70ac49a9f85622c4eb35f570]
entity WG--><rect fill="#FEFECE" height="219.5625" rx="6" ry="6" style="stroke: #444444; stroke-width: 1.5;" width="265" x="265.5" y="657.9531"/><text fill="#111111" font-family="Arial" font-size="14" lengthAdjust="spacingAndGlyphs" textLength="245" x="275.5" y="680.9482">WIREGUARD - VPN Gateway (Public)</text><text fill="#111111" font-family="Arial" font-size="14" lengthAdjust="spacingAndGlyphs" textLength="216" x="281.5" y="713.542">OS: Ubuntu 24.04 LTS (ARM64)</text><text fill="#111111" font-family="Arial" font-size="14" lengthAdjust="spacingAndGlyphs" textLength="137" x="281.5" y="729.8389">Private IP: 10.0.1.40</text><text fill="#111111" font-family="Arial" font-size="14" lengthAdjust="spacingAndGlyphs" textLength="106" x="281.5" y="746.1357">Public IP: x.x.x.x</text><text fill="#111111" font-family="Arial" font-size="14" lengthAdjust="spacingAndGlyphs" textLength="0" x="285.5" y="762.4326"/><text fill="#111111" font-family="Arial" font-size="14" lengthAdjust="spacingAndGlyphs" textLength="72" x="281.5" y="778.7295">VPN Entry:</text><text fill="#111111" font-family="Arial" font-size="14" lengthAdjust="spacingAndGlyphs" textLength="89" x="281.5" y="795.0264">- 51820/UDP</text><text fill="#111111" font-family="Arial" font-size="14" lengthAdjust="spacingAndGlyphs" textLength="0" x="285.5" y="811.3232"/><text fill="#111111" font-family="Arial" font-size="14" lengthAdjust="spacingAndGlyphs" textLength="36" x="281.5" y="827.6201">Role:</text><text fill="#111111" font-family="Arial" font-size="14" lengthAdjust="spacingAndGlyphs" textLength="175" x="281.5" y="843.917">- Single admin entry point</text><text fill="#111111" font-family="Arial" font-size="14" lengthAdjust="spacingAndGlyphs" textLength="232" x="281.5" y="860.2139">- Private access to Sensor &amp; SIEM</text><line style="stroke: #444444; stroke-width: 1.0;" x1="266.5" x2="375.5" y1="692.3984" y2="692.3984"/><text fill="#111111" font-family="Arial" font-size="14" lengthAdjust="spacingAndGlyphs" text-decoration="line-through" textLength="5" x="375.5" y="696.7451">-</text><text fill="#111111" font-family="Arial" font-size="14" lengthAdjust="spacingAndGlyphs" text-decoration="line-through" textLength="5" x="380.5" y="696.7451">-</text><text fill="#111111" font-family="Arial" font-size="14" lengthAdjust="spacingAndGlyphs" text-decoration="line-through" textLength="5" x="385.5" y="696.7451">-</text><text fill="#111111" font-family="Arial" font-size="14" lengthAdjust="spacingAndGlyphs" text-decoration="line-through" textLength="5" x="390.5" y="696.7451">-</text><text fill="#111111" font-family="Arial" font-size="14" lengthAdjust="spacingAndGlyphs" text-decoration="line-through" textLength="5" x="395.5" y="696.7451">-</text><text fill="#111111" font-family="Arial" font-size="14" lengthAdjust="spacingAndGlyphs" textLength="20" x="400.5" y="696.7451">----</text><line style="stroke: #444444; stroke-width: 1.0;" x1="420.5" x2="529.5" y1="692.3984" y2="692.3984"/><!--MD5=[55081a0b15233c025184ab93a3e05eed]
entity SIEM--><rect fill="#FEFECE" height="284.75" rx="6" ry="6" style="stroke: #444444; stroke-width: 1.5;" width="296" x="96" y="1016.9531"/><text fill="#111111" font-family="Arial" font-size="14" lengthAdjust="spacingAndGlyphs" textLength="217" x="106" y="1039.9482">SIEM - Wazuh Manager (Private)</text><text fill="#111111" font-family="Arial" font-size="14" lengthAdjust="spacingAndGlyphs" textLength="216" x="112" y="1072.542">OS: Ubuntu 24.04 LTS (ARM64)</text><text fill="#111111" font-family="Arial" font-size="14" lengthAdjust="spacingAndGlyphs" textLength="137" x="112" y="1088.8389">Private IP: 10.0.1.38</text><text fill="#111111" font-family="Arial" font-size="14" lengthAdjust="spacingAndGlyphs" textLength="106" x="112" y="1105.1357">Public IP: NONE</text><text fill="#111111" font-family="Arial" font-size="14" lengthAdjust="spacingAndGlyphs" textLength="0" x="116" y="1121.4326"/><text fill="#111111" font-family="Arial" font-size="14" lengthAdjust="spacingAndGlyphs" textLength="95" x="112" y="1137.7295">Components:</text><text fill="#111111" font-family="Arial" font-size="14" lengthAdjust="spacingAndGlyphs" textLength="120" x="112" y="1154.0264">- Wazuh Manager</text><text fill="#111111" font-family="Arial" font-size="14" lengthAdjust="spacingAndGlyphs" textLength="136" x="112" y="1170.3232">- Wazuh Dashboard</text><text fill="#111111" font-family="Arial" font-size="14" lengthAdjust="spacingAndGlyphs" textLength="0" x="116" y="1186.6201"/><text fill="#111111" font-family="Arial" font-size="14" lengthAdjust="spacingAndGlyphs" textLength="101" x="112" y="1202.917">Receives logs:</text><text fill="#111111" font-family="Arial" font-size="14" lengthAdjust="spacingAndGlyphs" textLength="139" x="112" y="1219.2139">- 1514/TCP (Wazuh)</text><text fill="#111111" font-family="Arial" font-size="14" lengthAdjust="spacingAndGlyphs" textLength="0" x="116" y="1235.5107"/><text fill="#111111" font-family="Arial" font-size="14" lengthAdjust="spacingAndGlyphs" textLength="60" x="112" y="1251.8076">Security:</text><text fill="#111111" font-family="Arial" font-size="14" lengthAdjust="spacingAndGlyphs" textLength="155" x="112" y="1268.1045">- No Internet exposure</text><text fill="#111111" font-family="Arial" font-size="14" lengthAdjust="spacingAndGlyphs" textLength="264" x="112" y="1284.4014">- Access only via VPN / private network</text><line style="stroke: #444444; stroke-width: 1.0;" x1="97" x2="221.5" y1="1051.3984" y2="1051.3984"/><text fill="#111111" font-family="Arial" font-size="14" lengthAdjust="spacingAndGlyphs" text-decoration="line-through" textLength="5" x="221.5" y="1055.7451">-</text><text fill="#111111" font-family="Arial" font-size="14" lengthAdjust="spacingAndGlyphs" text-decoration="line-through" textLength="5" x="226.5" y="1055.7451">-</text><text fill="#111111" font-family="Arial" font-size="14" lengthAdjust="spacingAndGlyphs" text-decoration="line-through" textLength="5" x="231.5" y="1055.7451">-</text><text fill="#111111" font-family="Arial" font-size="14" lengthAdjust="spacingAndGlyphs" text-decoration="line-through" textLength="5" x="236.5" y="1055.7451">-</text><text fill="#111111" font-family="Arial" font-size="14" lengthAdjust="spacingAndGlyphs" text-decoration="line-through" textLength="5" x="241.5" y="1055.7451">-</text><text fill="#111111" font-family="Arial" font-size="14" lengthAdjust="spacingAndGlyphs" textLength="20" x="246.5" y="1055.7451">----</text><line style="stroke: #444444; stroke-width: 1.0;" x1="266.5" x2="391" y1="1051.3984" y2="1051.3984"/><!--MD5=[9eb86c2b3d925a16ba1bdada40016c70]
entity Internet--><path d="M435.4498,37.8686 C438.3804,30.4717 445.2492,30.3621 449.4032,36.6182 C453.0174,30.79 457.7732,30.4238 462.2602,35.5982 C466.8658,28.2969 472.5844,28.3654 477.5286,35.2333 C481.568,29.2296 486.2733,29.9292 490.0584,35.5084 C495.3996,28.8656 500.1264,29.4357 504.1072,36.8664 C509.0553,29.8458 515.9634,32.2782 518.9043,39.0239 C526.9088,41.4305 529.8286,46.9928 524.1547,54.1479 C529.6295,60.347 528.2857,67.8971 519.0568,69.0746 C515.1049,76.1394 509.5632,77.1319 504.826,69.8536 C500.4168,76.3621 494.849,76.2169 489.9637,70.4289 C487.0213,77.1109 481.933,78.9004 476.851,72.588 C471.8628,78.3488 467.4168,78.1225 463.2774,71.6465 C458.2486,77.1225 452.4274,76.8896 449.8509,69.1543 C445.3652,76.6031 438.5874,75.3828 434.7566,68.4662 C426.7082,63.7914 426.9149,58.4948 432.9164,52.2279 C426.264,46.3301 427.4798,41.1865 435.4498,37.8686 " fill="#FEFECE" style="stroke: #000000; stroke-width: 1.5;"/><text fill="#000000" font-family="Arial" font-size="14" lengthAdjust="spacingAndGlyphs" textLength="69" x="441.5" y="56.9482">INTERNET</text><!--MD5=[97ab183161fd5d1db7fba7485cf76add]
entity Admin--><ellipse cx="735" cy="389.4531" fill="#FEFECE" rx="8" ry="8" style="stroke: #A80036; stroke-width: 1.5;"/><path d="M735,397.4531 L735,424.4531 M722,405.4531 L748,405.4531 M735,424.4531 L722,439.4531 M735,424.4531 L748,439.4531 " fill="none" style="stroke: #A80036; stroke-width: 1.5;"/><text fill="#000000" font-family="Arial" font-size="14" lengthAdjust="spacingAndGlyphs" textLength="79" x="695.5" y="454.9482">Admin User</text><text fill="#000000" font-family="Arial" font-size="14" lengthAdjust="spacingAndGlyphs" textLength="57" x="695.5" y="471.2451">(Laptop)</text><path d="M820,397.9531 L820,456.4844 A6,6 0 0 0 826,462.4844 L1034,462.4844 A6,6 0 0 0 1040,456.4844 L1040,401.9531 L1030,391.9531 L826,391.9531 A6,6 0 0 0 820,397.9531 " fill="#FBFB77" style="stroke: #A80036; stroke-width: 1.0;"/><path d="M1030,391.9531 L1030,398.9531 A3,3 0 0 0 1033,401.9531 L1040,401.9531 L1030,391.9531 " fill="#FBFB77" style="stroke: #A80036; stroke-width: 1.0;"/><text fill="#000000" font-family="Arial" font-size="13" lengthAdjust="spacingAndGlyphs" textLength="70" x="826" y="409.02">Hardening:</text><text fill="#000000" font-family="Arial" font-size="13" lengthAdjust="spacingAndGlyphs" textLength="189" x="826" y="424.1528">- Port 22 is honeypot (Cowrie)</text><text fill="#000000" font-family="Arial" font-size="13" lengthAdjust="spacingAndGlyphs" textLength="169" x="826" y="439.2856">- Real SSH moved to 2222</text><text fill="#000000" font-family="Arial" font-size="13" lengthAdjust="spacingAndGlyphs" textLength="199" x="826" y="454.4185">- 2222 reachable ONLY via VPN</text><path d="M142.5,1392.9531 L142.5,1436.3516 A6,6 0 0 0 148.5,1442.3516 L339.5,1442.3516 A6,6 0 0 0 345.5,1436.3516 L345.5,1396.9531 L335.5,1386.9531 L248,1386.9531 L244,1302.2331 L240,1386.9531 L148.5,1386.9531 A6,6 0 0 0 142.5,1392.9531 " fill="#FBFB77" style="stroke: #A80036; stroke-width: 1.0;"/><path d="M335.5,1386.9531 L335.5,1393.9531 A3,3 0 0 0 338.5,1396.9531 L345.5,1396.9531 L335.5,1386.9531 " fill="#FBFB77" style="stroke: #A80036; stroke-width: 1.0;"/><text fill="#000000" font-family="Arial" font-size="13" lengthAdjust="spacingAndGlyphs" textLength="71" x="148.5" y="1404.02">Zero Trust:</text><text fill="#000000" font-family="Arial" font-size="13" lengthAdjust="spacingAndGlyphs" textLength="182" x="148.5" y="1419.1528">- SIEM isolated from Internet</text><text fill="#000000" font-family="Arial" font-size="13" lengthAdjust="spacingAndGlyphs" textLength="177" x="148.5" y="1434.2856">- Least privilege rules in OCI</text><!--MD5=[ce10645598452d2b20e16e9eb5c05808]
link Sensor to WG--><!--MD5=[710267d3aeef395b771e0a5686a73847]
link WG to Sensor--><path d="M412.17,657.8731 C412.17,657.8731 412.17,575.0831 412.17,575.0831 " fill="none" id="WG-&gt;Sensor" style="stroke: #2CA02C; stroke-width: 1.2;"/><polygon fill="#2CA02C" points="412.17,570.0831,408.17,579.0831,412.17,575.0831,416.17,579.0831,412.17,570.0831" style="stroke: #2CA02C; stroke-width: 1.2;"/><text fill="#000000" font-family="Arial" font-size="13" lengthAdjust="spacingAndGlyphs" textLength="131" x="399" y="611.02">Admin SSH (private)</text><text fill="#000000" font-family="Arial" font-size="13" lengthAdjust="spacingAndGlyphs" textLength="123" x="403" y="626.1528">2222/TCP (via VPN)</text><!--MD5=[34f84324b0bc3913d38e45b7265b1e3c]
link WG to SIEM--><!--MD5=[34f84324b0bc3913d38e45b7265b1e3c]
link WG to SIEM--><path d="M349.83,878.0531 C349.83,878.0531 349.83,1011.8931 349.83,1011.8931 " fill="none" id="WG-&gt;SIEM-1" style="stroke: #2CA02C; stroke-width: 1.2;"/><polygon fill="#2CA02C" points="349.83,1016.8931,353.83,1007.8931,349.83,1011.8931,345.83,1007.8931,349.83,1016.8931" style="stroke: #2CA02C; stroke-width: 1.2;"/><text fill="#000000" font-family="Arial" font-size="13" lengthAdjust="spacingAndGlyphs" textLength="176" x="381" y="947.02">Dashboard access (private)</text><text fill="#000000" font-family="Arial" font-size="13" lengthAdjust="spacingAndGlyphs" textLength="59" x="439.5" y="962.1528">(via VPN)</text><!--MD5=[a8e729b9553b5c4be31caeb318ea76ab]
link Sensor to SIEM--><!--MD5=[a8e729b9553b5c4be31caeb318ea76ab]
link Sensor to SIEM--><path d="M264.29,474.9531 C233.51,474.9531 208.33,474.9531 208.33,474.9531 C208.33,474.9531 208.33,1011.7931 208.33,1011.7931 " fill="none" id="Sensor-&gt;SIEM-1" style="stroke: #1F77B4; stroke-width: 1.2;"/><polygon fill="#1F77B4" points="208.33,1016.7931,212.33,1007.7931,208.33,1011.7931,204.33,1007.7931,208.33,1016.7931" style="stroke: #1F77B4; stroke-width: 1.2;"/><text fill="#000000" font-family="Arial" font-size="13" lengthAdjust="spacingAndGlyphs" textLength="88" x="131" y="765.02">Logs (private)</text><text fill="#000000" font-family="Arial" font-size="13" lengthAdjust="spacingAndGlyphs" textLength="60" x="145" y="780.1528">1514/TCP</text><!--MD5=[7e47d4b2beaf8947a147ef277d0347be]
link Internet to Sensor--><path d="M456,75.1631 C456,75.1631 456,279.7431 456,279.7431 " fill="none" id="Internet-&gt;Sensor" style="stroke: #C0392B; stroke-width: 1.2;"/><polygon fill="#C0392B" points="456,284.7431,460,275.7431,456,279.7431,452,275.7431,456,284.7431" style="stroke: #C0392B; stroke-width: 1.2;"/><text fill="#000000" font-family="Arial" font-size="13" lengthAdjust="spacingAndGlyphs" textLength="81" x="421.5" y="116.02">Attack traffic</text><text fill="#000000" font-family="Arial" font-size="13" lengthAdjust="spacingAndGlyphs" textLength="96" x="414" y="131.1528">22/TCP, 80/TCP</text><!--MD5=[83c84af15bfb841e136c09cf1bbef117]
link Internet to WG--><path d="M498.83,74.9631 C498.83,74.9631 498.83,652.6931 498.83,652.6931 " fill="none" id="Internet-&gt;WG" style="stroke: #C0392B; stroke-width: 1.2;"/><polygon fill="#C0392B" points="498.83,657.6931,502.83,648.6931,498.83,652.6931,494.83,648.6931,498.83,657.6931" style="stroke: #C0392B; stroke-width: 1.2;"/><text fill="#000000" font-family="Arial" font-size="13" lengthAdjust="spacingAndGlyphs" textLength="64" x="581" y="424.52">VPN entry</text><text fill="#000000" font-family="Arial" font-size="13" lengthAdjust="spacingAndGlyphs" textLength="72" x="577" y="439.6528">51820/UDP</text><!--MD5=[22a24e55f588eaf82bab63dde52b2e44]
link Admin to WG--><path d="M695.42,427.9531 C631.39,427.9531 512.17,427.9531 512.17,427.9531 C512.17,427.9531 512.17,652.5631 512.17,652.5631 " fill="none" id="Admin-&gt;WG" style="stroke: #2CA02C; stroke-width: 1.2;"/><polygon fill="#2CA02C" points="512.17,657.5631,516.17,648.5631,512.17,652.5631,508.17,648.5631,512.17,657.5631" style="stroke: #2CA02C; stroke-width: 1.2;"/><text fill="#000000" font-family="Arial" font-size="13" lengthAdjust="spacingAndGlyphs" textLength="110" x="736" y="611.02">WireGuard tunnel</text><text fill="#000000" font-family="Arial" font-size="13" lengthAdjust="spacingAndGlyphs" textLength="72" x="755" y="626.1528">51820/UDP</text><!--MD5=[dd912ab47a40a4f15a3ad3d8b870b717]
link Sensor to GMN21--><path d="M485.65,332.9531 C647.56,332.9531 930,332.9531 930,332.9531 C930,332.9531 930,364.9631 930,391.7231 " fill="none" id="Sensor-GMN21" style="stroke: #444444; stroke-width: 1.2; stroke-dasharray: 7.0,7.0;"/><rect fill="#DDDDDD" height="58.8906" rx="5" ry="5" style="stroke: #000000; stroke-width: 1.0;" width="232" x="817" y="1459.9531"/><text fill="#C0392B" font-family="Arial" font-size="14" lengthAdjust="spacingAndGlyphs" textLength="28" x="823" y="1477.9482">Red</text><text fill="#000000" font-family="Arial" font-size="14" lengthAdjust="spacingAndGlyphs" textLength="173" x="859" y="1477.9482">= Public/attack exposure</text><text fill="#1F77B4" font-family="Arial" font-size="14" lengthAdjust="spacingAndGlyphs" textLength="31" x="823" y="1494.2451">Blue</text><text fill="#000000" font-family="Arial" font-size="14" lengthAdjust="spacingAndGlyphs" textLength="172" x="858" y="1494.2451">= Log forwarding to SIEM</text><text fill="#2CA02C" font-family="Arial" font-size="14" lengthAdjust="spacingAndGlyphs" textLength="43" x="823" y="1510.542">Green</text><text fill="#000000" font-family="Arial" font-size="14" lengthAdjust="spacingAndGlyphs" textLength="173" x="870" y="1510.542">= Admin via VPN (private)</text><!--MD5=[182e7745b76f0a4abca35aef56fc15d9]
@startuml

skinparam backgroundColor white
skinparam defaultFontName Arial
skinparam shadowing false
skinparam roundcorner 12

skinparam linetype ortho
skinparam nodesep 45
skinparam ranksep 55

skinparam RectangleBorderColor #444444
skinparam RectangleFontColor  #111111
skinparam ArrowColor          #444444
skinparam ArrowThickness      1.2

title Cloud Honeypot - WireGuard - SIEM (OCI ARM64 - Zero Trust)

cloud "INTERNET" as Internet
actor "Admin User\n(Laptop)" as Admin

rectangle "Oracle Cloud Infrastructure (OCI)\nAlways Free Tier • ARM64 (Ampere A1)\nVCN: 10.0.1.0/24 • Subnet: 10.0.1.0/24" as OCI {

  package "Public Instances" as PUB {

    together {
      rectangle "SENSOR - Honeypots (Public)\n- - - - - - - - - - - - - - - - - - - - - - - - - - - - - - - - -\nOS: Oracle Linux 9 (ARM64)\nPrivate IP: 10.0.1.37\nPublic IP: x.x.x.x\n\nExposed (honeypot):\n- 22/TCP  Cowrie SSH\n- 80/TCP  DVWA Web\n\nAdmin (real SSH):\n- 2222/TCP  (ONLY via VPN)\n\nTelemetry:\n- Wazuh Agent\n- Docker: Cowrie + DVWA" as Sensor

      rectangle "WIREGUARD - VPN Gateway (Public)\n- - - - - - - - - - - - - - - - - - - - - - - - - - - - - - - - -\nOS: Ubuntu 24.04 LTS (ARM64)\nPrivate IP: 10.0.1.40\nPublic IP: x.x.x.x\n\nVPN Entry:\n- 51820/UDP\n\nRole:\n- Single admin entry point\n- Private access to Sensor & SIEM" as WG
    }

    Sensor -[hidden]-> WG
  }

  package "Private Instance (No Public IP)" as PRIV {
    rectangle "SIEM - Wazuh Manager (Private)\n- - - - - - - - - - - - - - - - - - - - - - - - - - - - - - - - -\nOS: Ubuntu 24.04 LTS (ARM64)\nPrivate IP: 10.0.1.38\nPublic IP: NONE\n\nComponents:\n- Wazuh Manager\n- Wazuh Dashboard\n\nReceives logs:\n- 1514/TCP (Wazuh)\n\nSecurity:\n- No Internet exposure\n- Access only via VPN / private network" as SIEM
  }

  WG -[hidden]-> SIEM
  Sensor -[hidden]-> SIEM
}


Internet -[#C0392B]-> Sensor : Attack traffic\n22/TCP, 80/TCP
Internet -[#C0392B]-> WG     : VPN entry\n51820/UDP

Sensor -[#1F77B4]-> SIEM : Logs (private)\n1514/TCP

Admin  -[#2CA02C]-> WG   : WireGuard tunnel\n51820/UDP
WG     -[#2CA02C]-> Sensor : Admin SSH (private)\n2222/TCP (via VPN)
WG     -[#2CA02C]-> SIEM   : Dashboard access (private)\n(via VPN)

note right of Sensor
Hardening:
- Port 22 is honeypot (Cowrie)
- Real SSH moved to 2222
- 2222 reachable ONLY via VPN
end note

note bottom of SIEM
Zero Trust:
- SIEM isolated from Internet
- Least privilege rules in OCI
end note

legend right
<color:#C0392B>Red</color>  = Public/attack exposure
<color:#1F77B4>Blue</color> = Log forwarding to SIEM
<color:#2CA02C>Green</color> = Admin via VPN (private)
endlegend

@enduml

PlantUML version 1.2020.02(Sun Mar 01 10:22:07 UTC 2020)
(GPL source distribution)
Java Runtime: OpenJDK Runtime Environment
JVM: OpenJDK 64-Bit Server VM
Java Version: 17.0.18+8
Operating System: Linux
Default Encoding: UTF-8
Language: en
Country: null
--></g></svg>