<?xml version="1.0" encoding="UTF-8" standalone="no"?><svg xmlns="http://www.w3.org/2000/svg" xmlns:xlink="http://www.w3.org/1999/xlink" contentScriptType="application/ecmascript" contentStyleType="text/css" height="1328px" preserveAspectRatio="none" style="width:926px;height:1328px;" version="1.1" viewBox="0 0 926 1328" width="926px" zoomAndPan="magnify"><defs/><g><text fill="#000000" font-family="Arial" font-size="18" lengthAdjust="spacingAndGlyphs" textLength="559" x="187" y="16.708">Cloud Honeypot - WireGuard - SIEM (OCI ARM64 - Zero Trust)</text><!--MD5=[8f5b229fc176886651a1c211aa908adc]
cluster OCI--><rect fill="#FFFFFF" height="1054" rx="6" ry="6" style="stroke: #333333; stroke-width: 1.5;" width="589" x="116.56" y="159.9531"/><text fill="#111111" font-family="Arial" font-size="14" font-weight="bold" lengthAdjust="spacingAndGlyphs" textLength="260" x="281.06" y="174.9482">Oracle Cloud Infrastructure (OCI)</text><text fill="#111111" font-family="Arial" font-size="14" font-weight="bold" lengthAdjust="spacingAndGlyphs" textLength="308" x="257.06" y="191.2451">Always Free Tier - ARM64 (Ampere A1)</text><text fill="#111111" font-family="Arial" font-size="14" font-weight="bold" lengthAdjust="spacingAndGlyphs" textLength="306" x="258.06" y="207.542">VCN: 10.0.1.0/24 | Subnet: 10.0.1.0/24</text><!--MD5=[55081a0b15233c025184ab93a3e05eed]
entity SIEM--><rect fill="#FEFECE" height="280.75" rx="6" ry="6" style="stroke: #333333; stroke-width: 1.5;" width="254" x="233.56" y="916.9531"/><text fill="#111111" font-family="Arial" font-size="14" lengthAdjust="spacingAndGlyphs" textLength="230" x="243.56" y="939.9482">SIEM (Private Instance - NO Public</text><text fill="#111111" font-family="Arial" font-size="14" lengthAdjust="spacingAndGlyphs" textLength="17" x="243.56" y="956.2451">IP)</text><text fill="#111111" font-family="Arial" font-size="14" lengthAdjust="spacingAndGlyphs" textLength="158" x="243.56" y="972.542">Ubuntu 24.04 (ARM64)</text><text fill="#111111" font-family="Arial" font-size="14" lengthAdjust="spacingAndGlyphs" textLength="137" x="243.56" y="988.8389">Private IP: 10.0.1.38</text><text fill="#111111" font-family="Arial" font-size="14" lengthAdjust="spacingAndGlyphs" textLength="0" x="247.56" y="1005.1357"/><text fill="#111111" font-family="Arial" font-size="14" lengthAdjust="spacingAndGlyphs" textLength="95" x="243.56" y="1021.4326">Components:</text><text fill="#111111" font-family="Arial" font-size="14" lengthAdjust="spacingAndGlyphs" textLength="120" x="243.56" y="1037.7295">- Wazuh Manager</text><text fill="#111111" font-family="Arial" font-size="14" lengthAdjust="spacingAndGlyphs" textLength="136" x="243.56" y="1054.0264">- Wazuh Dashboard</text><text fill="#111111" font-family="Arial" font-size="14" lengthAdjust="spacingAndGlyphs" textLength="0" x="247.56" y="1070.3232"/><text fill="#111111" font-family="Arial" font-size="14" lengthAdjust="spacingAndGlyphs" textLength="101" x="243.56" y="1086.6201">Receives logs:</text><text fill="#111111" font-family="Arial" font-size="14" lengthAdjust="spacingAndGlyphs" textLength="139" x="243.56" y="1102.917">- 1514/TCP (Wazuh)</text><text fill="#111111" font-family="Arial" font-size="14" lengthAdjust="spacingAndGlyphs" textLength="0" x="247.56" y="1119.2139"/><text fill="#111111" font-family="Arial" font-size="14" lengthAdjust="spacingAndGlyphs" textLength="60" x="243.56" y="1135.5107">Security:</text><text fill="#111111" font-family="Arial" font-size="14" lengthAdjust="spacingAndGlyphs" textLength="173" x="243.56" y="1151.8076">- Not exposed to Internet</text><text fill="#111111" font-family="Arial" font-size="14" lengthAdjust="spacingAndGlyphs" textLength="196" x="243.56" y="1168.1045">- Access only via VPN/private</text><text fill="#111111" font-family="Arial" font-size="14" lengthAdjust="spacingAndGlyphs" textLength="56" x="243.56" y="1184.4014">network</text><!--MD5=[94b3b673d5a236560eff806941c90c67]
entity Sensor--><rect fill="#FEFECE" height="280.75" rx="6" ry="6" style="stroke: #333333; stroke-width: 1.5;" width="247" x="157.06" y="541.9531"/><text fill="#111111" font-family="Arial" font-size="14" lengthAdjust="spacingAndGlyphs" textLength="176" x="167.06" y="564.9482">SENSOR (Public Instance)</text><text fill="#111111" font-family="Arial" font-size="14" lengthAdjust="spacingAndGlyphs" textLength="159" x="167.06" y="581.2451">Oracle Linux 9 (ARM64)</text><text fill="#111111" font-family="Arial" font-size="14" lengthAdjust="spacingAndGlyphs" textLength="137" x="167.06" y="597.542">Private IP: 10.0.1.37</text><text fill="#111111" font-family="Arial" font-size="14" lengthAdjust="spacingAndGlyphs" textLength="106" x="167.06" y="613.8389">Public IP: x.x.x.x</text><text fill="#111111" font-family="Arial" font-size="14" lengthAdjust="spacingAndGlyphs" textLength="0" x="171.06" y="630.1357"/><text fill="#111111" font-family="Arial" font-size="14" lengthAdjust="spacingAndGlyphs" textLength="126" x="167.06" y="646.4326">Exposed services:</text><text fill="#111111" font-family="Arial" font-size="14" lengthAdjust="spacingAndGlyphs" textLength="227" x="167.06" y="662.7295">- 22/TCP  Cowrie (SSH honeypot)</text><text fill="#111111" font-family="Arial" font-size="14" lengthAdjust="spacingAndGlyphs" textLength="225" x="167.06" y="679.0264">- 80/TCP  DVWA (Web honeypot)</text><text fill="#111111" font-family="Arial" font-size="14" lengthAdjust="spacingAndGlyphs" textLength="0" x="171.06" y="695.3232"/><text fill="#111111" font-family="Arial" font-size="14" lengthAdjust="spacingAndGlyphs" textLength="119" x="167.06" y="711.6201">Admin (real SSH):</text><text fill="#111111" font-family="Arial" font-size="14" lengthAdjust="spacingAndGlyphs" textLength="153" x="167.06" y="727.917">- 2222/TCP (VPN-only)</text><text fill="#111111" font-family="Arial" font-size="14" lengthAdjust="spacingAndGlyphs" textLength="0" x="171.06" y="744.2139"/><text fill="#111111" font-family="Arial" font-size="14" lengthAdjust="spacingAndGlyphs" textLength="74" x="167.06" y="760.5107">Telemetry:</text><text fill="#111111" font-family="Arial" font-size="14" lengthAdjust="spacingAndGlyphs" textLength="101" x="167.06" y="776.8076">- Wazuh Agent</text><text fill="#111111" font-family="Arial" font-size="14" lengthAdjust="spacingAndGlyphs" textLength="208" x="167.06" y="793.1045">- Docker containers (Cowrie +</text><text fill="#111111" font-family="Arial" font-size="14" lengthAdjust="spacingAndGlyphs" textLength="47" x="167.06" y="809.4014">DVWA)</text><!--MD5=[e49c185d70ac49a9f85622c4eb35f570]
entity WG--><rect fill="#FEFECE" height="199.2656" rx="6" ry="6" style="stroke: #333333; stroke-width: 1.5;" width="252" x="156.56" y="250.9531"/><text fill="#111111" font-family="Arial" font-size="14" lengthAdjust="spacingAndGlyphs" textLength="204" x="166.56" y="273.9482">WIREGUARD (Public Instance)</text><text fill="#111111" font-family="Arial" font-size="14" lengthAdjust="spacingAndGlyphs" textLength="158" x="166.56" y="290.2451">Ubuntu 24.04 (ARM64)</text><text fill="#111111" font-family="Arial" font-size="14" lengthAdjust="spacingAndGlyphs" textLength="137" x="166.56" y="306.542">Private IP: 10.0.1.40</text><text fill="#111111" font-family="Arial" font-size="14" lengthAdjust="spacingAndGlyphs" textLength="106" x="166.56" y="322.8389">Public IP: x.x.x.x</text><text fill="#111111" font-family="Arial" font-size="14" lengthAdjust="spacingAndGlyphs" textLength="0" x="170.56" y="339.1357"/><text fill="#111111" font-family="Arial" font-size="14" lengthAdjust="spacingAndGlyphs" textLength="72" x="166.56" y="355.4326">VPN entry:</text><text fill="#111111" font-family="Arial" font-size="14" lengthAdjust="spacingAndGlyphs" textLength="89" x="166.56" y="371.7295">- 51820/UDP</text><text fill="#111111" font-family="Arial" font-size="14" lengthAdjust="spacingAndGlyphs" textLength="0" x="170.56" y="388.0264"/><text fill="#111111" font-family="Arial" font-size="14" lengthAdjust="spacingAndGlyphs" textLength="36" x="166.56" y="404.3232">Role:</text><text fill="#111111" font-family="Arial" font-size="14" lengthAdjust="spacingAndGlyphs" textLength="175" x="166.56" y="420.6201">- Single admin entry point</text><text fill="#111111" font-family="Arial" font-size="14" lengthAdjust="spacingAndGlyphs" textLength="232" x="166.56" y="436.917">- Private access to Sensor &amp; SIEM</text><!--MD5=[9eb86c2b3d925a16ba1bdada40016c70]
entity Internet--><path d="M44.0098,41.3686 C46.9404,33.9717 53.8092,33.8621 57.9632,40.1182 C61.5774,34.29 66.3332,33.9238 70.8202,39.0982 C75.4258,31.7969 81.1444,31.8654 86.0886,38.7333 C90.128,32.7296 94.8333,33.4292 98.6184,39.0084 C103.9596,32.3656 108.6864,32.9357 112.6672,40.3664 C117.6153,33.3458 124.5234,35.7782 127.4643,42.5239 C135.4688,44.9305 138.3886,50.4928 132.7147,57.6479 C138.1895,63.847 136.8457,71.3971 127.6168,72.5746 C123.6649,79.6394 118.1232,80.6319 113.386,73.3536 C108.9768,79.8621 103.409,79.7169 98.5237,73.9289 C95.5813,80.6109 90.493,82.4004 85.411,76.088 C80.4228,81.8488 75.9768,81.6225 71.8374,75.1465 C66.8086,80.6225 60.9874,80.3896 58.4109,72.6543 C53.9252,80.1031 47.1474,78.8828 43.3166,71.9662 C35.2682,67.2914 35.4749,61.9948 41.4764,55.7279 C34.824,49.8301 36.0398,44.6865 44.0098,41.3686 " fill="#FEFECE" style="stroke: #000000; stroke-width: 1.5;"/><text fill="#000000" font-family="Arial" font-size="14" lengthAdjust="spacingAndGlyphs" textLength="69" x="50.06" y="60.4482">INTERNET</text><!--MD5=[97ab183161fd5d1db7fba7485cf76add]
entity Admin--><rect fill="#FEFECE" height="52.5938" rx="6" ry="6" style="stroke: #333333; stroke-width: 1.5;" width="99" x="233.06" y="28.9531"/><text fill="#111111" font-family="Arial" font-size="14" lengthAdjust="spacingAndGlyphs" textLength="79" x="243.06" y="51.9482">Admin User</text><text fill="#111111" font-family="Arial" font-size="14" lengthAdjust="spacingAndGlyphs" textLength="57" x="243.06" y="68.2451">(Laptop)</text><path d="M724.56,654.9531 L724.56,710.3516 L914.56,710.3516 L914.56,664.9531 L904.56,654.9531 L724.56,654.9531 " fill="#FBFB77" style="stroke: #A80036; stroke-width: 1.0;"/><path d="M904.56,654.9531 L904.56,664.9531 L914.56,664.9531 L904.56,654.9531 " fill="#FBFB77" style="stroke: #A80036; stroke-width: 1.0;"/><text fill="#000000" font-family="Arial" font-size="13" lengthAdjust="spacingAndGlyphs" textLength="70" x="730.56" y="672.02">Hardening:</text><text fill="#000000" font-family="Arial" font-size="13" lengthAdjust="spacingAndGlyphs" textLength="169" x="730.56" y="687.1528">- Real SSH moved to 2222</text><text fill="#000000" font-family="Arial" font-size="13" lengthAdjust="spacingAndGlyphs" textLength="125" x="730.56" y="702.2856">- Honeypot uses 22</text><path d="M259.06,1260.9531 L259.06,1316.3516 A0,0 0 0 0 259.06,1316.3516 L462.06,1316.3516 A0,0 0 0 0 462.06,1316.3516 L462.06,1270.9531 L452.06,1260.9531 L364.56,1260.9531 L360.56,1198.2631 L356.56,1260.9531 L259.06,1260.9531 A0,0 0 0 0 259.06,1260.9531 " fill="#FBFB77" style="stroke: #A80036; stroke-width: 1.0;"/><path d="M452.06,1260.9531 L452.06,1270.9531 L462.06,1270.9531 L452.06,1260.9531 " fill="#FBFB77" style="stroke: #A80036; stroke-width: 1.0;"/><text fill="#000000" font-family="Arial" font-size="13" lengthAdjust="spacingAndGlyphs" textLength="71" x="265.06" y="1278.02">Zero Trust:</text><text fill="#000000" font-family="Arial" font-size="13" lengthAdjust="spacingAndGlyphs" textLength="182" x="265.06" y="1293.1528">- SIEM isolated from Internet</text><text fill="#000000" font-family="Arial" font-size="13" lengthAdjust="spacingAndGlyphs" textLength="177" x="265.06" y="1308.2856">- Least privilege rules in OCI</text><!--MD5=[a8e729b9553b5c4be31caeb318ea76ab]
link Sensor to SIEM--><!--MD5=[a8e729b9553b5c4be31caeb318ea76ab]
link Sensor to SIEM--><path d="M270.55,823.1431 C271.48,844.6831 273.89,866.5531 278.56,886.9531 C280.44,895.1331 282.76,903.3731 285.42,911.5931 " fill="none" id="Sensor-&gt;SIEM-1" style="stroke: #333333; stroke-width: 1.2;"/><polygon fill="#333333" points="287.12,916.7031,288.0864,906.9018,285.5474,911.9569,280.4924,909.4179,287.12,916.7031" style="stroke: #333333; stroke-width: 1.2;"/><text fill="#000000" font-family="Arial" font-size="13" lengthAdjust="spacingAndGlyphs" textLength="151" x="279.56" y="868.02">Log forwarding (private)</text><text fill="#000000" font-family="Arial" font-size="13" lengthAdjust="spacingAndGlyphs" textLength="60" x="325.06" y="883.1528">1514/TCP</text><!--MD5=[34f84324b0bc3913d38e45b7265b1e3c]
link WG to SIEM--><!--MD5=[34f84324b0bc3913d38e45b7265b1e3c]
link WG to SIEM--><path d="M396.46,449.9931 C419.32,477.0231 439.43,508.2631 449.56,541.9531 C493.72,688.7931 487.79,739.2631 446.56,886.9531 C444.28,895.1131 441.6,903.3431 438.61,911.5431 " fill="none" id="WG-&gt;SIEM-1" style="stroke: #333333; stroke-width: 1.2;"/><polygon fill="#333333" points="436.71,916.6431,443.5966,909.6022,438.4531,911.9568,436.0985,906.8133,436.71,916.6431" style="stroke: #333333; stroke-width: 1.2;"/><text fill="#000000" font-family="Arial" font-size="13" lengthAdjust="spacingAndGlyphs" textLength="176" x="480.56" y="679.52">Dashboard access (private)</text><text fill="#000000" font-family="Arial" font-size="13" lengthAdjust="spacingAndGlyphs" textLength="59" x="539.06" y="694.6528">(via VPN)</text><!--MD5=[7e47d4b2beaf8947a147ef277d0347be]
link Internet to Sensor--><path d="M70.06,78.5031 C58.7,97.1831 43.8,125.1331 37.56,151.9531 C7.54,280.9531 -14.6,328.2131 37.56,449.9531 C61.84,506.6231 107.56,555.9931 152.85,594.4131 " fill="none" id="Internet-&gt;Sensor" style="stroke: #333333; stroke-width: 1.2;"/><polygon fill="#333333" points="156.95,597.8631,152.6454,589.0048,153.1266,594.6411,147.4902,595.1223,156.95,597.8631" style="stroke: #333333; stroke-width: 1.2;"/><text fill="#000000" font-family="Arial" font-size="13" lengthAdjust="spacingAndGlyphs" textLength="81" x="48.06" y="340.02">Attack traffic</text><text fill="#000000" font-family="Arial" font-size="13" lengthAdjust="spacingAndGlyphs" textLength="100" x="38.56" y="355.1528">22/TCP (Cowrie)</text><text fill="#000000" font-family="Arial" font-size="13" lengthAdjust="spacingAndGlyphs" textLength="97" x="40.06" y="370.2856">80/TCP (DVWA)</text><!--MD5=[83c84af15bfb841e136c09cf1bbef117]
link Internet to WG--><path d="M99.44,78.4731 C123.38,113.8931 171.9,185.6931 212.98,246.4931 " fill="none" id="Internet-&gt;WG" style="stroke: #333333; stroke-width: 1.2;"/><polygon fill="#333333" points="215.93,250.8531,214.2044,241.1566,213.1302,246.7105,207.5763,245.6363,215.93,250.8531" style="stroke: #333333; stroke-width: 1.2;"/><text fill="#000000" font-family="Arial" font-size="13" lengthAdjust="spacingAndGlyphs" textLength="64" x="147.56" y="125.02">VPN entry</text><text fill="#000000" font-family="Arial" font-size="13" lengthAdjust="spacingAndGlyphs" textLength="72" x="143.56" y="140.1528">51820/UDP</text><!--MD5=[22a24e55f588eaf82bab63dde52b2e44]
link Admin to WG--><path d="M282.56,82.2031 C282.56,118.5231 282.56,186.9331 282.56,245.4431 " fill="none" id="Admin-&gt;WG" style="stroke: #333333; stroke-width: 1.2;"/><polygon fill="#333333" points="282.56,250.7131,286.56,241.7131,282.56,245.7131,278.56,241.7131,282.56,250.7131" style="stroke: #333333; stroke-width: 1.2;"/><text fill="#000000" font-family="Arial" font-size="13" lengthAdjust="spacingAndGlyphs" textLength="110" x="283.56" y="125.02">WireGuard tunnel</text><text fill="#000000" font-family="Arial" font-size="13" lengthAdjust="spacingAndGlyphs" textLength="72" x="302.56" y="140.1528">51820/UDP</text><!--MD5=[710267d3aeef395b771e0a5686a73847]
link WG to Sensor--><path d="M167.02,450.3431 C160.54,459.7431 154.91,469.6431 150.56,479.9531 C139.74,505.5931 143.43,531.5731 154.8,555.9831 " fill="none" id="WG-&gt;Sensor" style="stroke: #333333; stroke-width: 1.2;"/><polygon fill="#333333" points="157,560.5131,156.6659,550.6699,154.8155,556.0156,149.4698,554.1652,157,560.5131" style="stroke: #333333; stroke-width: 1.2;"/><text fill="#000000" font-family="Arial" font-size="13" lengthAdjust="spacingAndGlyphs" textLength="131" x="152.06" y="493.02">Admin SSH (private)</text><text fill="#000000" font-family="Arial" font-size="13" lengthAdjust="spacingAndGlyphs" textLength="132" x="151.56" y="508.1528">2222/TCP (VPN-only)</text><!--MD5=[bc84840a57afabf773cf7179d898c480]
link Sensor to GMN18--><path d="M366.03,541.8031 C383.51,523.2831 403.55,506.9431 426.06,495.9531 C530.7,444.8731 584.69,442.3531 688.06,495.9531 C752.95,529.6031 792.61,611.6131 809.7,654.8131 " fill="none" id="Sensor-GMN18" style="stroke: #333333; stroke-width: 1.2; stroke-dasharray: 7.0,7.0;"/><!--MD5=[3134346e2d6e621096288662727ffa24]
@startuml
skinparam backgroundColor white
skinparam shadowing false
skinparam defaultFontName Arial
skinparam ArrowThickness 1.2
skinparam ArrowColor #333333
skinparam RectangleBorderColor #333333
skinparam RectangleFontColor #111111
skinparam RectangleRoundCorner 12
skinparam wrapWidth 240
skinparam maxMessageSize 220

title Cloud Honeypot - WireGuard - SIEM (OCI ARM64 - Zero Trust)

cloud "INTERNET" as Internet
rectangle "Admin User\n(Laptop)" as Admin

rectangle "Oracle Cloud Infrastructure (OCI)\nAlways Free Tier - ARM64 (Ampere A1)\nVCN: 10.0.1.0/24 | Subnet: 10.0.1.0/24" as OCI {

  together {
    rectangle "SENSOR (Public Instance)\nOracle Linux 9 (ARM64)\nPrivate IP: 10.0.1.37\nPublic IP: x.x.x.x\n\nExposed services:\n- 22/TCP  Cowrie (SSH honeypot)\n- 80/TCP  DVWA (Web honeypot)\n\nAdmin (real SSH):\n- 2222/TCP (VPN-only)\n\nTelemetry:\n- Wazuh Agent\n- Docker containers (Cowrie + DVWA)" as Sensor

    rectangle "WIREGUARD (Public Instance)\nUbuntu 24.04 (ARM64)\nPrivate IP: 10.0.1.40\nPublic IP: x.x.x.x\n\nVPN entry:\n- 51820/UDP\n\nRole:\n- Single admin entry point\n- Private access to Sensor & SIEM" as WG
  }

  rectangle "SIEM (Private Instance - NO Public IP)\nUbuntu 24.04 (ARM64)\nPrivate IP: 10.0.1.38\n\nComponents:\n- Wazuh Manager\n- Wazuh Dashboard\n\nReceives logs:\n- 1514/TCP (Wazuh)\n\nSecurity:\n- Not exposed to Internet\n- Access only via VPN/private network" as SIEM

  Sensor -[hidden]-> SIEM
  WG     -[hidden]-> SIEM
}

Internet - -> Sensor : Attack traffic\n22/TCP (Cowrie)\n80/TCP (DVWA)
Internet - -> WG     : VPN entry\n51820/UDP

Sensor - -> SIEM : Log forwarding (private)\n1514/TCP

Admin - -> WG    : WireGuard tunnel\n51820/UDP
WG - -> Sensor   : Admin SSH (private)\n2222/TCP (VPN-only)
WG - -> SIEM     : Dashboard access (private)\n(via VPN)

note right of Sensor
Hardening:
- Real SSH moved to 2222
- Honeypot uses 22
end note

note bottom of SIEM
Zero Trust:
- SIEM isolated from Internet
- Least privilege rules in OCI
end note

@enduml

PlantUML version 1.2020.02(Sun Mar 01 10:22:07 UTC 2020)
(GPL source distribution)
Java Runtime: OpenJDK Runtime Environment
JVM: OpenJDK 64-Bit Server VM
Java Version: 17.0.18+8
Operating System: Linux
Default Encoding: UTF-8
Language: en
Country: null
--></g></svg>