<?xml version="1.0" encoding="UTF-8" standalone="no"?><svg xmlns="http://www.w3.org/2000/svg" xmlns:xlink="http://www.w3.org/1999/xlink" contentScriptType="application/ecmascript" contentStyleType="text/css" height="1252px" preserveAspectRatio="none" style="width:797px;height:1252px;" version="1.1" viewBox="0 0 797 1252" width="797px" zoomAndPan="magnify"><defs/><g><text fill="#000000" font-family="Arial" font-size="18" lengthAdjust="spacingAndGlyphs" textLength="635" x="84" y="16.708">Cloud Honeypot - WireGuard - SIEM Architecture (ARM64 - Zero Trust)</text><!--MD5=[8f5b229fc176886651a1c211aa908adc]
cluster OCI--><rect fill="#FFFFFF" height="978" style="stroke: #444444; stroke-width: 1.5;" width="554" x="22" y="159.9531"/><text fill="#111111" font-family="Arial" font-size="14" font-weight="bold" lengthAdjust="spacingAndGlyphs" textLength="260" x="169" y="174.9482">Oracle Cloud Infrastructure (OCI)</text><text fill="#111111" font-family="Arial" font-size="14" font-weight="bold" lengthAdjust="spacingAndGlyphs" textLength="307" x="145.5" y="191.2451">Always Free Tier · ARM64 (Ampere A1)</text><text fill="#111111" font-family="Arial" font-size="14" font-weight="bold" lengthAdjust="spacingAndGlyphs" textLength="306" x="146" y="207.542">VCN: 10.0.1.0/24 · Subnet: 10.0.1.0/24</text><!--MD5=[94b3b673d5a236560eff806941c90c67]
entity Sensor--><rect fill="#FEFECE" height="264.4531" style="stroke: #444444; stroke-width: 1.5;" width="274" x="38" y="517.9531"/><text fill="#111111" font-family="Arial" font-size="14" lengthAdjust="spacingAndGlyphs" textLength="176" x="48" y="540.9482">SENSOR (Public Instance)</text><text fill="#111111" font-family="Arial" font-size="14" lengthAdjust="spacingAndGlyphs" textLength="157" x="48" y="557.2451">Oracle Linux 9 · ARM64</text><text fill="#111111" font-family="Arial" font-size="14" lengthAdjust="spacingAndGlyphs" textLength="137" x="48" y="573.542">Private IP: 10.0.1.37</text><text fill="#111111" font-family="Arial" font-size="14" lengthAdjust="spacingAndGlyphs" textLength="106" x="48" y="589.8389">Public IP: x.x.x.x</text><text fill="#111111" font-family="Arial" font-size="14" lengthAdjust="spacingAndGlyphs" textLength="0" x="52" y="606.1357"/><text fill="#111111" font-family="Arial" font-size="14" lengthAdjust="spacingAndGlyphs" textLength="126" x="48" y="622.4326">Exposed services:</text><text fill="#111111" font-family="Arial" font-size="14" lengthAdjust="spacingAndGlyphs" textLength="227" x="48" y="638.7295">- 22/TCP  Cowrie (SSH honeypot)</text><text fill="#111111" font-family="Arial" font-size="14" lengthAdjust="spacingAndGlyphs" textLength="225" x="48" y="655.0264">- 80/TCP  DVWA (Web honeypot)</text><text fill="#111111" font-family="Arial" font-size="14" lengthAdjust="spacingAndGlyphs" textLength="0" x="52" y="671.3232"/><text fill="#111111" font-family="Arial" font-size="14" lengthAdjust="spacingAndGlyphs" textLength="119" x="48" y="687.6201">Admin (real SSH):</text><text fill="#111111" font-family="Arial" font-size="14" lengthAdjust="spacingAndGlyphs" textLength="183" x="48" y="703.917">- 2222/TCP (ONLY via VPN)</text><text fill="#111111" font-family="Arial" font-size="14" lengthAdjust="spacingAndGlyphs" textLength="0" x="52" y="720.2139"/><text fill="#111111" font-family="Arial" font-size="14" lengthAdjust="spacingAndGlyphs" textLength="74" x="48" y="736.5107">Telemetry:</text><text fill="#111111" font-family="Arial" font-size="14" lengthAdjust="spacingAndGlyphs" textLength="162" x="48" y="752.8076">- Wazuh Agent installed</text><text fill="#111111" font-family="Arial" font-size="14" lengthAdjust="spacingAndGlyphs" textLength="254" x="48" y="769.1045">- Docker containers: Cowrie + DVWA</text><!--MD5=[e49c185d70ac49a9f85622c4eb35f570]
entity WG--><rect fill="#FEFECE" height="199.2656" style="stroke: #444444; stroke-width: 1.5;" width="252" x="256" y="226.9531"/><text fill="#111111" font-family="Arial" font-size="14" lengthAdjust="spacingAndGlyphs" textLength="204" x="266" y="249.9482">WIREGUARD (Public Instance)</text><text fill="#111111" font-family="Arial" font-size="14" lengthAdjust="spacingAndGlyphs" textLength="156" x="266" y="266.2451">Ubuntu 24.04 · ARM64</text><text fill="#111111" font-family="Arial" font-size="14" lengthAdjust="spacingAndGlyphs" textLength="137" x="266" y="282.542">Private IP: 10.0.1.40</text><text fill="#111111" font-family="Arial" font-size="14" lengthAdjust="spacingAndGlyphs" textLength="106" x="266" y="298.8389">Public IP: x.x.x.x</text><text fill="#111111" font-family="Arial" font-size="14" lengthAdjust="spacingAndGlyphs" textLength="0" x="270" y="315.1357"/><text fill="#111111" font-family="Arial" font-size="14" lengthAdjust="spacingAndGlyphs" textLength="72" x="266" y="331.4326">VPN entry:</text><text fill="#111111" font-family="Arial" font-size="14" lengthAdjust="spacingAndGlyphs" textLength="175" x="266" y="347.7295">- 51820/UDP (WireGuard)</text><text fill="#111111" font-family="Arial" font-size="14" lengthAdjust="spacingAndGlyphs" textLength="0" x="270" y="364.0264"/><text fill="#111111" font-family="Arial" font-size="14" lengthAdjust="spacingAndGlyphs" textLength="36" x="266" y="380.3232">Role:</text><text fill="#111111" font-family="Arial" font-size="14" lengthAdjust="spacingAndGlyphs" textLength="175" x="266" y="396.6201">- Single admin entry point</text><text fill="#111111" font-family="Arial" font-size="14" lengthAdjust="spacingAndGlyphs" textLength="232" x="266" y="412.917">- Private access to Sensor &amp; SIEM</text><!--MD5=[55081a0b15233c025184ab93a3e05eed]
entity SIEM--><rect fill="#FEFECE" height="248.1563" style="stroke: #444444; stroke-width: 1.5;" width="276" x="141" y="873.9531"/><text fill="#111111" font-family="Arial" font-size="14" lengthAdjust="spacingAndGlyphs" textLength="250" x="151" y="896.9482">SIEM (Private Instance · NO Public IP)</text><text fill="#111111" font-family="Arial" font-size="14" lengthAdjust="spacingAndGlyphs" textLength="156" x="151" y="913.2451">Ubuntu 24.04 · ARM64</text><text fill="#111111" font-family="Arial" font-size="14" lengthAdjust="spacingAndGlyphs" textLength="137" x="151" y="929.542">Private IP: 10.0.1.38</text><text fill="#111111" font-family="Arial" font-size="14" lengthAdjust="spacingAndGlyphs" textLength="0" x="155" y="945.8389"/><text fill="#111111" font-family="Arial" font-size="14" lengthAdjust="spacingAndGlyphs" textLength="95" x="151" y="962.1357">Components:</text><text fill="#111111" font-family="Arial" font-size="14" lengthAdjust="spacingAndGlyphs" textLength="120" x="151" y="978.4326">- Wazuh Manager</text><text fill="#111111" font-family="Arial" font-size="14" lengthAdjust="spacingAndGlyphs" textLength="136" x="151" y="994.7295">- Wazuh Dashboard</text><text fill="#111111" font-family="Arial" font-size="14" lengthAdjust="spacingAndGlyphs" textLength="0" x="155" y="1011.0264"/><text fill="#111111" font-family="Arial" font-size="14" lengthAdjust="spacingAndGlyphs" textLength="101" x="151" y="1027.3232">Receives logs:</text><text fill="#111111" font-family="Arial" font-size="14" lengthAdjust="spacingAndGlyphs" textLength="139" x="151" y="1043.6201">- 1514/TCP (Wazuh)</text><text fill="#111111" font-family="Arial" font-size="14" lengthAdjust="spacingAndGlyphs" textLength="0" x="155" y="1059.917"/><text fill="#111111" font-family="Arial" font-size="14" lengthAdjust="spacingAndGlyphs" textLength="60" x="151" y="1076.2139">Security:</text><text fill="#111111" font-family="Arial" font-size="14" lengthAdjust="spacingAndGlyphs" textLength="173" x="151" y="1092.5107">- Not exposed to Internet</text><text fill="#111111" font-family="Arial" font-size="14" lengthAdjust="spacingAndGlyphs" textLength="256" x="151" y="1108.8076">- Access only via VPN/private network</text><!--MD5=[9eb86c2b3d925a16ba1bdada40016c70]
entity Internet--><path d="M143.4498,41.3686 C146.3804,33.9717 153.2492,33.8621 157.4032,40.1182 C161.0174,34.29 165.7732,33.9238 170.2602,39.0982 C174.8658,31.7969 180.5844,31.8654 185.5286,38.7333 C189.568,32.7296 194.2733,33.4292 198.0584,39.0084 C203.3996,32.3656 208.1264,32.9357 212.1072,40.3664 C217.0553,33.3458 223.9634,35.7782 226.9043,42.5239 C234.9088,44.9305 237.8286,50.4928 232.1547,57.6479 C237.6295,63.847 236.2857,71.3971 227.0568,72.5746 C223.1049,79.6394 217.5632,80.6319 212.826,73.3536 C208.4168,79.8621 202.849,79.7169 197.9637,73.9289 C195.0213,80.6109 189.933,82.4004 184.851,76.088 C179.8628,81.8488 175.4168,81.6225 171.2774,75.1465 C166.2486,80.6225 160.4274,80.3896 157.8509,72.6543 C153.3652,80.1031 146.5874,78.8828 142.7566,71.9662 C134.7082,67.2914 134.9149,61.9948 140.9164,55.7279 C134.264,49.8301 135.4798,44.6865 143.4498,41.3686 " fill="#FEFECE" style="stroke: #000000; stroke-width: 1.5;"/><text fill="#000000" font-family="Arial" font-size="14" lengthAdjust="spacingAndGlyphs" textLength="69" x="149.5" y="60.4482">INTERNET</text><!--MD5=[97ab183161fd5d1db7fba7485cf76add]
entity Admin--><rect fill="#FEFECE" height="52.5938" style="stroke: #444444; stroke-width: 1.5;" width="99" x="332.5" y="28.9531"/><text fill="#111111" font-family="Arial" font-size="14" lengthAdjust="spacingAndGlyphs" textLength="79" x="342.5" y="51.9482">Admin User</text><text fill="#111111" font-family="Arial" font-size="14" lengthAdjust="spacingAndGlyphs" textLength="57" x="342.5" y="68.2451">(Laptop)</text><path d="M595,622.4531 L595,677.8516 L785,677.8516 L785,632.4531 L775,622.4531 L595,622.4531 " fill="#FBFB77" style="stroke: #A80036; stroke-width: 1.0;"/><path d="M775,622.4531 L775,632.4531 L785,632.4531 L775,622.4531 " fill="#FBFB77" style="stroke: #A80036; stroke-width: 1.0;"/><text fill="#000000" font-family="Arial" font-size="13" lengthAdjust="spacingAndGlyphs" textLength="70" x="601" y="639.52">Hardening:</text><text fill="#000000" font-family="Arial" font-size="13" lengthAdjust="spacingAndGlyphs" textLength="169" x="601" y="654.6528">- Real SSH moved to 2222</text><text fill="#000000" font-family="Arial" font-size="13" lengthAdjust="spacingAndGlyphs" textLength="125" x="601" y="669.7856">- Honeypot uses 22</text><path d="M177.5,1184.9531 L177.5,1240.3516 A0,0 0 0 0 177.5,1240.3516 L380.5,1240.3516 A0,0 0 0 0 380.5,1240.3516 L380.5,1194.9531 L370.5,1184.9531 L283,1184.9531 L279,1122.2531 L275,1184.9531 L177.5,1184.9531 A0,0 0 0 0 177.5,1184.9531 " fill="#FBFB77" style="stroke: #A80036; stroke-width: 1.0;"/><path d="M370.5,1184.9531 L370.5,1194.9531 L380.5,1194.9531 L370.5,1184.9531 " fill="#FBFB77" style="stroke: #A80036; stroke-width: 1.0;"/><text fill="#000000" font-family="Arial" font-size="13" lengthAdjust="spacingAndGlyphs" textLength="71" x="183.5" y="1202.02">Zero Trust:</text><text fill="#000000" font-family="Arial" font-size="13" lengthAdjust="spacingAndGlyphs" textLength="182" x="183.5" y="1217.1528">- SIEM isolated from Internet</text><text fill="#000000" font-family="Arial" font-size="13" lengthAdjust="spacingAndGlyphs" textLength="177" x="183.5" y="1232.2856">- Least privilege rules in OCI</text><!--MD5=[7e47d4b2beaf8947a147ef277d0347be]
link Internet to Sensor--><path d="M169.5,78.5031 C158.14,97.1831 143.24,125.1331 137,151.9531 C109.1,271.8231 123.93,411.9031 142.62,512.7331 " fill="none" id="Internet-&gt;Sensor" style="stroke: #444444; stroke-width: 1.2;"/><polygon fill="#444444" points="143.57,517.8131,145.8563,508.2333,142.6555,512.8975,137.9913,509.6966,143.57,517.8131" style="stroke: #444444; stroke-width: 1.2;"/><text fill="#000000" font-family="Arial" font-size="13" lengthAdjust="spacingAndGlyphs" textLength="81" x="147.5" y="316.02">Attack traffic</text><text fill="#000000" font-family="Arial" font-size="13" lengthAdjust="spacingAndGlyphs" textLength="100" x="138" y="331.1528">22/TCP (Cowrie)</text><text fill="#000000" font-family="Arial" font-size="13" lengthAdjust="spacingAndGlyphs" textLength="97" x="139.5" y="346.2856">80/TCP (DVWA)</text><!--MD5=[83c84af15bfb841e136c09cf1bbef117]
link Internet to WG--><path d="M200.2,78.4631 C223.34,109.8931 267.34,169.6831 306.27,222.5631 " fill="none" id="Internet-&gt;WG" style="stroke: #444444; stroke-width: 1.2;"/><polygon fill="#444444" points="309.3,226.6831,307.1768,217.0659,306.3321,222.6593,300.7386,221.8146,309.3,226.6831" style="stroke: #444444; stroke-width: 1.2;"/><text fill="#000000" font-family="Arial" font-size="13" lengthAdjust="spacingAndGlyphs" textLength="64" x="253" y="125.02">VPN entry</text><text fill="#000000" font-family="Arial" font-size="13" lengthAdjust="spacingAndGlyphs" textLength="72" x="249" y="140.1528">51820/UDP</text><!--MD5=[a8e729b9553b5c4be31caeb318ea76ab]
link Sensor to SIEM--><path d="M203,782.1631 C208.18,802.9631 213.9,824.1431 220,843.9531 C222.5,852.0631 225.21,860.3631 228.06,868.6931 " fill="none" id="Sensor-&gt;SIEM" style="stroke: #444444; stroke-width: 1.2;"/><polygon fill="#444444" points="229.85,873.8831,230.6921,864.0703,228.2174,869.1572,223.1306,866.6825,229.85,873.8831" style="stroke: #444444; stroke-width: 1.2;"/><text fill="#000000" font-family="Arial" font-size="13" lengthAdjust="spacingAndGlyphs" textLength="151" x="221" y="825.02">Log forwarding (private)</text><text fill="#000000" font-family="Arial" font-size="13" lengthAdjust="spacingAndGlyphs" textLength="60" x="266.5" y="840.1528">1514/TCP</text><!--MD5=[22a24e55f588eaf82bab63dde52b2e44]
link Admin to WG--><path d="M382,82.2431 C382,114.3431 382,171.1231 382,221.7531 " fill="none" id="Admin-&gt;WG" style="stroke: #444444; stroke-width: 1.2;"/><polygon fill="#444444" points="382,226.9431,386,217.9431,382,221.9431,378,217.9431,382,226.9431" style="stroke: #444444; stroke-width: 1.2;"/><text fill="#000000" font-family="Arial" font-size="13" lengthAdjust="spacingAndGlyphs" textLength="110" x="383" y="125.02">WireGuard tunnel</text><text fill="#000000" font-family="Arial" font-size="13" lengthAdjust="spacingAndGlyphs" textLength="72" x="402" y="140.1528">51820/UDP</text><!--MD5=[710267d3aeef395b771e0a5686a73847]
link WG to Sensor--><path d="M262.84,426.0831 C254.5,435.6631 246.74,445.6631 240,455.9531 C228.56,473.4031 218.95,493.0731 210.92,512.9931 " fill="none" id="WG-&gt;Sensor" style="stroke: #444444; stroke-width: 1.2;"/><polygon fill="#444444" points="209.01,517.7931,216.0482,510.9037,210.8546,513.1458,208.6125,507.9523,209.01,517.7931" style="stroke: #444444; stroke-width: 1.2;"/><text fill="#000000" font-family="Arial" font-size="13" lengthAdjust="spacingAndGlyphs" textLength="131" x="241" y="469.02">Admin SSH (private)</text><text fill="#000000" font-family="Arial" font-size="13" lengthAdjust="spacingAndGlyphs" textLength="60" x="276.5" y="484.1528">2222/TCP</text><!--MD5=[34f84324b0bc3913d38e45b7265b1e3c]
link WG to SIEM--><path d="M387.5,426.1831 C393.49,553.7831 399.48,768.5431 377,843.9531 C374.49,852.3731 371.37,860.7631 367.8,869.0431 " fill="none" id="WG-&gt;SIEM" style="stroke: #444444; stroke-width: 1.2;"/><polygon fill="#444444" points="365.77,873.6331,373.0767,867.0291,367.798,869.0629,365.7643,863.7843,365.77,873.6331" style="stroke: #444444; stroke-width: 1.2;"/><text fill="#000000" font-family="Arial" font-size="13" lengthAdjust="spacingAndGlyphs" textLength="176" x="393" y="647.02">Dashboard access (private)</text><text fill="#000000" font-family="Arial" font-size="13" lengthAdjust="spacingAndGlyphs" textLength="91" x="435.5" y="662.1528">(through VPN)</text><!--MD5=[0c3cda5a859411eca50e3336cc0834c0]
link Sensor to GMN14--><path d="M284.02,517.7931 C305.93,499.1031 330.35,482.6331 356.5,471.9531 C439.61,438.0031 478.35,431.5131 558.5,471.9531 C621.1,503.5331 661.28,580.5531 679.19,622.1731 " fill="none" id="Sensor-GMN14" style="stroke: #444444; stroke-width: 1.2; stroke-dasharray: 7.0,7.0;"/><!--MD5=[9aa88d7bc2c1d662ae2c9ba3a92f319a]
@startuml
skinparam backgroundColor white
skinparam Shadowing false
skinparam defaultFontName Arial
skinparam RectangleBorderColor #444
skinparam RectangleFontColor #111
skinparam ArrowColor #444
skinparam ArrowThickness 1.2

title Cloud Honeypot - WireGuard - SIEM Architecture (ARM64 - Zero Trust)

cloud "INTERNET" as Internet
rectangle "Admin User\n(Laptop)" as Admin

rectangle "Oracle Cloud Infrastructure (OCI)\nAlways Free Tier · ARM64 (Ampere A1)\nVCN: 10.0.1.0/24 · Subnet: 10.0.1.0/24" as OCI {

  rectangle "SENSOR (Public Instance)\nOracle Linux 9 · ARM64\nPrivate IP: 10.0.1.37\nPublic IP: x.x.x.x\n\nExposed services:\n- 22/TCP  Cowrie (SSH honeypot)\n- 80/TCP  DVWA (Web honeypot)\n\nAdmin (real SSH):\n- 2222/TCP (ONLY via VPN)\n\nTelemetry:\n- Wazuh Agent installed\n- Docker containers: Cowrie + DVWA" as Sensor

  rectangle "WIREGUARD (Public Instance)\nUbuntu 24.04 · ARM64\nPrivate IP: 10.0.1.40\nPublic IP: x.x.x.x\n\nVPN entry:\n- 51820/UDP (WireGuard)\n\nRole:\n- Single admin entry point\n- Private access to Sensor & SIEM" as WG

  rectangle "SIEM (Private Instance · NO Public IP)\nUbuntu 24.04 · ARM64\nPrivate IP: 10.0.1.38\n\nComponents:\n- Wazuh Manager\n- Wazuh Dashboard\n\nReceives logs:\n- 1514/TCP (Wazuh)\n\nSecurity:\n- Not exposed to Internet\n- Access only via VPN/private network" as SIEM
}

Internet - -> Sensor : Attack traffic\n22/TCP (Cowrie)\n80/TCP (DVWA)
Internet - -> WG : VPN entry\n51820/UDP

Sensor - -> SIEM : Log forwarding (private)\n1514/TCP

Admin - -> WG : WireGuard tunnel\n51820/UDP
WG - -> Sensor : Admin SSH (private)\n2222/TCP
WG - -> SIEM : Dashboard access (private)\n(through VPN)

note right of Sensor
Hardening:
- Real SSH moved to 2222
- Honeypot uses 22
end note

note bottom of SIEM
Zero Trust:
- SIEM isolated from Internet
- Least privilege rules in OCI
end note

@enduml

PlantUML version 1.2020.02(Sun Mar 01 10:22:07 UTC 2020)
(GPL source distribution)
Java Runtime: OpenJDK Runtime Environment
JVM: OpenJDK 64-Bit Server VM
Java Version: 17.0.18+8
Operating System: Linux
Default Encoding: UTF-8
Language: en
Country: null
--></g></svg>