<?xml version="1.0" encoding="UTF-8" standalone="no"?><svg xmlns="http://www.w3.org/2000/svg" xmlns:xlink="http://www.w3.org/1999/xlink" contentScriptType="application/ecmascript" contentStyleType="text/css" height="1392px" preserveAspectRatio="none" style="width:907px;height:1392px;" version="1.1" viewBox="0 0 907 1392" width="907px" zoomAndPan="magnify"><defs/><g><text fill="#000000" font-family="Arial" font-size="18" lengthAdjust="spacingAndGlyphs" textLength="559" x="177.5" y="16.708">Cloud Honeypot - WireGuard - SIEM (OCI ARM64 - Zero Trust)</text><!--MD5=[8f5b229fc176886651a1c211aa908adc]
cluster OCI--><rect fill="#FFFFFF" height="1103" rx="6" ry="6" style="stroke: #333333; stroke-width: 1.5;" width="544" x="98.97" y="159.9531"/><text fill="#111111" font-family="Arial" font-size="14" font-weight="bold" lengthAdjust="spacingAndGlyphs" textLength="260" x="240.97" y="174.9482">Oracle Cloud Infrastructure (OCI)</text><text fill="#111111" font-family="Arial" font-size="14" font-weight="bold" lengthAdjust="spacingAndGlyphs" textLength="308" x="216.97" y="191.2451">Always Free Tier - ARM64 (Ampere A1)</text><text fill="#111111" font-family="Arial" font-size="14" font-weight="bold" lengthAdjust="spacingAndGlyphs" textLength="316" x="212.97" y="207.542">VCN: 10.0.1.0/24  |  Subnet: 10.0.1.0/24</text><!--MD5=[55081a0b15233c025184ab93a3e05eed]
entity SIEM--><rect fill="#FEFECE" height="280.75" rx="6" ry="6" style="stroke: #333333; stroke-width: 1.5;" width="228" x="286.97" y="965.9531"/><text fill="#111111" font-family="Arial" font-size="14" lengthAdjust="spacingAndGlyphs" textLength="183" x="296.97" y="988.9482">SIEM (Private Instance - No</text><text fill="#111111" font-family="Arial" font-size="14" lengthAdjust="spacingAndGlyphs" textLength="62" x="296.97" y="1005.2451">Public IP)</text><text fill="#111111" font-family="Arial" font-size="14" lengthAdjust="spacingAndGlyphs" textLength="158" x="296.97" y="1021.542">Ubuntu 24.04 (ARM64)</text><text fill="#111111" font-family="Arial" font-size="14" lengthAdjust="spacingAndGlyphs" textLength="137" x="296.97" y="1037.8389">Private IP: 10.0.1.38</text><text fill="#111111" font-family="Arial" font-size="14" lengthAdjust="spacingAndGlyphs" textLength="0" x="300.97" y="1054.1357"/><text fill="#111111" font-family="Arial" font-size="14" lengthAdjust="spacingAndGlyphs" textLength="95" x="296.97" y="1070.4326">Components:</text><text fill="#111111" font-family="Arial" font-size="14" lengthAdjust="spacingAndGlyphs" textLength="120" x="296.97" y="1086.7295">- Wazuh Manager</text><text fill="#111111" font-family="Arial" font-size="14" lengthAdjust="spacingAndGlyphs" textLength="136" x="296.97" y="1103.0264">- Wazuh Dashboard</text><text fill="#111111" font-family="Arial" font-size="14" lengthAdjust="spacingAndGlyphs" textLength="0" x="300.97" y="1119.3232"/><text fill="#111111" font-family="Arial" font-size="14" lengthAdjust="spacingAndGlyphs" textLength="101" x="296.97" y="1135.6201">Receives logs:</text><text fill="#111111" font-family="Arial" font-size="14" lengthAdjust="spacingAndGlyphs" textLength="139" x="296.97" y="1151.917">- 1514/TCP (Wazuh)</text><text fill="#111111" font-family="Arial" font-size="14" lengthAdjust="spacingAndGlyphs" textLength="0" x="300.97" y="1168.2139"/><text fill="#111111" font-family="Arial" font-size="14" lengthAdjust="spacingAndGlyphs" textLength="60" x="296.97" y="1184.5107">Security:</text><text fill="#111111" font-family="Arial" font-size="14" lengthAdjust="spacingAndGlyphs" textLength="155" x="296.97" y="1200.8076">- No Internet Exposure</text><text fill="#111111" font-family="Arial" font-size="14" lengthAdjust="spacingAndGlyphs" textLength="204" x="296.97" y="1217.1045">- Access only via VPN / private</text><text fill="#111111" font-family="Arial" font-size="14" lengthAdjust="spacingAndGlyphs" textLength="56" x="296.97" y="1233.4014">network</text><!--MD5=[94b3b673d5a236560eff806941c90c67]
entity Sensor--><rect fill="#FEFECE" height="313.3438" rx="6" ry="6" style="stroke: #333333; stroke-width: 1.5;" width="240" x="138.97" y="558.9531"/><text fill="#111111" font-family="Arial" font-size="14" lengthAdjust="spacingAndGlyphs" textLength="176" x="148.97" y="581.9482">SENSOR (Public Instance)</text><text fill="#111111" font-family="Arial" font-size="14" lengthAdjust="spacingAndGlyphs" textLength="159" x="148.97" y="598.2451">Oracle Linux 9 (ARM64)</text><text fill="#111111" font-family="Arial" font-size="14" lengthAdjust="spacingAndGlyphs" textLength="137" x="148.97" y="614.542">Private IP: 10.0.1.37</text><text fill="#111111" font-family="Arial" font-size="14" lengthAdjust="spacingAndGlyphs" textLength="106" x="148.97" y="630.8389">Public IP: x.x.x.x</text><text fill="#111111" font-family="Arial" font-size="14" lengthAdjust="spacingAndGlyphs" textLength="0" x="152.97" y="647.1357"/><text fill="#111111" font-family="Arial" font-size="14" lengthAdjust="spacingAndGlyphs" textLength="144" x="148.97" y="663.4326">Honeypots exposed:</text><text fill="#111111" font-family="Arial" font-size="14" lengthAdjust="spacingAndGlyphs" textLength="152" x="148.97" y="679.7295">- 22/TCP  Cowrie (SSH</text><text fill="#111111" font-family="Arial" font-size="14" lengthAdjust="spacingAndGlyphs" textLength="71" x="148.97" y="696.0264">honeypot)</text><text fill="#111111" font-family="Arial" font-size="14" lengthAdjust="spacingAndGlyphs" textLength="220" x="148.97" y="712.3232">- 80/TCP  DVWA (Web honeypot</text><text fill="#111111" font-family="Arial" font-size="14" lengthAdjust="spacingAndGlyphs" textLength="5" x="148.97" y="728.6201">)</text><text fill="#111111" font-family="Arial" font-size="14" lengthAdjust="spacingAndGlyphs" textLength="0" x="152.97" y="744.917"/><text fill="#111111" font-family="Arial" font-size="14" lengthAdjust="spacingAndGlyphs" textLength="119" x="148.97" y="761.2139">Admin (real SSH):</text><text fill="#111111" font-family="Arial" font-size="14" lengthAdjust="spacingAndGlyphs" textLength="153" x="148.97" y="777.5107">- 2222/TCP (VPN-only)</text><text fill="#111111" font-family="Arial" font-size="14" lengthAdjust="spacingAndGlyphs" textLength="0" x="152.97" y="793.8076"/><text fill="#111111" font-family="Arial" font-size="14" lengthAdjust="spacingAndGlyphs" textLength="74" x="148.97" y="810.1045">Telemetry:</text><text fill="#111111" font-family="Arial" font-size="14" lengthAdjust="spacingAndGlyphs" textLength="101" x="148.97" y="826.4014">- Wazuh Agent</text><text fill="#111111" font-family="Arial" font-size="14" lengthAdjust="spacingAndGlyphs" textLength="208" x="148.97" y="842.6982">- Docker containers (Cowrie +</text><text fill="#111111" font-family="Arial" font-size="14" lengthAdjust="spacingAndGlyphs" textLength="47" x="148.97" y="858.9951">DVWA)</text><!--MD5=[e49c185d70ac49a9f85622c4eb35f570]
entity WG--><rect fill="#FEFECE" height="215.5625" rx="6" ry="6" style="stroke: #333333; stroke-width: 1.5;" width="224" x="154.97" y="250.9531"/><text fill="#111111" font-family="Arial" font-size="14" lengthAdjust="spacingAndGlyphs" textLength="204" x="164.97" y="273.9482">WIREGUARD (Public Instance)</text><text fill="#111111" font-family="Arial" font-size="14" lengthAdjust="spacingAndGlyphs" textLength="158" x="164.97" y="290.2451">Ubuntu 24.04 (ARM64)</text><text fill="#111111" font-family="Arial" font-size="14" lengthAdjust="spacingAndGlyphs" textLength="137" x="164.97" y="306.542">Private IP: 10.0.1.40</text><text fill="#111111" font-family="Arial" font-size="14" lengthAdjust="spacingAndGlyphs" textLength="106" x="164.97" y="322.8389">Public IP: x.x.x.x</text><text fill="#111111" font-family="Arial" font-size="14" lengthAdjust="spacingAndGlyphs" textLength="0" x="168.97" y="339.1357"/><text fill="#111111" font-family="Arial" font-size="14" lengthAdjust="spacingAndGlyphs" textLength="72" x="164.97" y="355.4326">VPN Entry:</text><text fill="#111111" font-family="Arial" font-size="14" lengthAdjust="spacingAndGlyphs" textLength="89" x="164.97" y="371.7295">- 51820/UDP</text><text fill="#111111" font-family="Arial" font-size="14" lengthAdjust="spacingAndGlyphs" textLength="0" x="168.97" y="388.0264"/><text fill="#111111" font-family="Arial" font-size="14" lengthAdjust="spacingAndGlyphs" textLength="36" x="164.97" y="404.3232">Role:</text><text fill="#111111" font-family="Arial" font-size="14" lengthAdjust="spacingAndGlyphs" textLength="175" x="164.97" y="420.6201">- Single admin entry point</text><text fill="#111111" font-family="Arial" font-size="14" lengthAdjust="spacingAndGlyphs" textLength="195" x="164.97" y="436.917">- Private access to Sensor &amp;</text><text fill="#111111" font-family="Arial" font-size="14" lengthAdjust="spacingAndGlyphs" textLength="33" x="164.97" y="453.2139">SIEM</text><!--MD5=[9eb86c2b3d925a16ba1bdada40016c70]
entity Internet--><path d="M35.4198,41.3686 C38.3504,33.9717 45.2192,33.8621 49.3732,40.1182 C52.9874,34.29 57.7432,33.9238 62.2302,39.0982 C66.8358,31.7969 72.5544,31.8654 77.4986,38.7333 C81.538,32.7296 86.2433,33.4292 90.0284,39.0084 C95.3696,32.3656 100.0964,32.9357 104.0772,40.3664 C109.0253,33.3458 115.9334,35.7782 118.8743,42.5239 C126.8788,44.9305 129.7986,50.4928 124.1247,57.6479 C129.5995,63.847 128.2557,71.3971 119.0268,72.5746 C115.0749,79.6394 109.5332,80.6319 104.796,73.3536 C100.3868,79.8621 94.819,79.7169 89.9337,73.9289 C86.9913,80.6109 81.903,82.4004 76.821,76.088 C71.8328,81.8488 67.3868,81.6225 63.2474,75.1465 C58.2186,80.6225 52.3974,80.3896 49.8209,72.6543 C45.3352,80.1031 38.5574,78.8828 34.7266,71.9662 C26.6782,67.2914 26.8849,61.9948 32.8864,55.7279 C26.234,49.8301 27.4498,44.6865 35.4198,41.3686 " fill="#FEFECE" style="stroke: #000000; stroke-width: 1.5;"/><text fill="#000000" font-family="Arial" font-size="14" lengthAdjust="spacingAndGlyphs" textLength="69" x="41.47" y="60.4482">INTERNET</text><!--MD5=[97ab183161fd5d1db7fba7485cf76add]
entity Admin--><rect fill="#FEFECE" height="52.5938" rx="6" ry="6" style="stroke: #333333; stroke-width: 1.5;" width="99" x="217.47" y="28.9531"/><text fill="#111111" font-family="Arial" font-size="14" lengthAdjust="spacingAndGlyphs" textLength="79" x="227.47" y="51.9482">Admin User</text><text fill="#111111" font-family="Arial" font-size="14" lengthAdjust="spacingAndGlyphs" textLength="57" x="227.47" y="68.2451">(Laptop)</text><path d="M661.97,679.9531 L661.97,750.4844 L895.97,750.4844 L895.97,689.9531 L885.97,679.9531 L661.97,679.9531 " fill="#FBFB77" style="stroke: #A80036; stroke-width: 1.0;"/><path d="M885.97,679.9531 L885.97,689.9531 L895.97,689.9531 L885.97,679.9531 " fill="#FBFB77" style="stroke: #A80036; stroke-width: 1.0;"/><text fill="#000000" font-family="Arial" font-size="13" lengthAdjust="spacingAndGlyphs" textLength="70" x="667.97" y="697.02">Hardening:</text><text fill="#000000" font-family="Arial" font-size="13" lengthAdjust="spacingAndGlyphs" textLength="169" x="667.97" y="712.1528">- Real SSH moved to 2222</text><text fill="#000000" font-family="Arial" font-size="13" lengthAdjust="spacingAndGlyphs" textLength="189" x="667.97" y="727.2856">- Port 22 is honeypot (Cowrie)</text><text fill="#000000" font-family="Arial" font-size="13" lengthAdjust="spacingAndGlyphs" textLength="213" x="667.97" y="742.4185">- Admin access only through VPN</text><path d="M301.97,1309.9531 L301.97,1380.4844 A0,0 0 0 0 301.97,1380.4844 L499.97,1380.4844 A0,0 0 0 0 499.97,1380.4844 L499.97,1319.9531 L489.97,1309.9531 L404.97,1309.9531 L400.97,1247.0331 L396.97,1309.9531 L301.97,1309.9531 A0,0 0 0 0 301.97,1309.9531 " fill="#FBFB77" style="stroke: #A80036; stroke-width: 1.0;"/><path d="M489.97,1309.9531 L489.97,1319.9531 L499.97,1319.9531 L489.97,1309.9531 " fill="#FBFB77" style="stroke: #A80036; stroke-width: 1.0;"/><text fill="#000000" font-family="Arial" font-size="13" lengthAdjust="spacingAndGlyphs" textLength="71" x="307.97" y="1327.02">Zero Trust:</text><text fill="#000000" font-family="Arial" font-size="13" lengthAdjust="spacingAndGlyphs" textLength="147" x="307.97" y="1342.1528">- SIEM has NO public IP</text><text fill="#000000" font-family="Arial" font-size="13" lengthAdjust="spacingAndGlyphs" textLength="132" x="307.97" y="1357.2856">- Private-only access</text><text fill="#000000" font-family="Arial" font-size="13" lengthAdjust="spacingAndGlyphs" textLength="177" x="307.97" y="1372.4185">- Least privilege rules in OCI</text><!--MD5=[7e47d4b2beaf8947a147ef277d0347be]
link Internet to Sensor--><path d="M63.62,78.7931 C53.93,97.6531 41.25,125.6931 35.97,151.9531 C8.39,289.2131 -14.22,336.2631 35.97,466.9531 C56.76,521.0931 95.48,570.7831 134.88,611.2131 " fill="none" id="Internet-&gt;Sensor" style="stroke: #333333; stroke-width: 1.2;"/><polygon fill="#333333" points="138.7,615.1031,135.2202,605.8895,135.186,611.5462,129.5292,611.5119,138.7,615.1031" style="stroke: #333333; stroke-width: 1.2;"/><text fill="#000000" font-family="Arial" font-size="13" lengthAdjust="spacingAndGlyphs" textLength="81" x="46.47" y="348.52">Attack traffic</text><text fill="#000000" font-family="Arial" font-size="13" lengthAdjust="spacingAndGlyphs" textLength="100" x="36.97" y="363.6528">22/TCP (Cowrie)</text><text fill="#000000" font-family="Arial" font-size="13" lengthAdjust="spacingAndGlyphs" textLength="97" x="38.47" y="378.7856">80/TCP (DVWA)</text><!--MD5=[83c84af15bfb841e136c09cf1bbef117]
link Internet to WG--><path d="M90.02,78.6231 C112.31,113.8131 157.28,184.7931 196.3,246.3931 " fill="none" id="Internet-&gt;WG" style="stroke: #333333; stroke-width: 1.2;"/><polygon fill="#333333" points="199.1,250.8131,197.6748,241.0679,196.4295,246.586,190.9114,245.3407,199.1,250.8131" style="stroke: #333333; stroke-width: 1.2;"/><text fill="#000000" font-family="Arial" font-size="13" lengthAdjust="spacingAndGlyphs" textLength="64" x="131.97" y="125.02">VPN entry</text><text fill="#000000" font-family="Arial" font-size="13" lengthAdjust="spacingAndGlyphs" textLength="72" x="127.97" y="140.1528">51820/UDP</text><!--MD5=[a8e729b9553b5c4be31caeb318ea76ab]
link Sensor to SIEM--><path d="M315.81,872.1531 C326.5,901.4431 337.64,931.9531 348.2,960.8931 " fill="none" id="Sensor-&gt;SIEM" style="stroke: #333333; stroke-width: 1.2;"/><polygon fill="#333333" points="350.03,965.8931,350.7039,956.0673,348.3167,961.1958,343.1882,958.8086,350.03,965.8931" style="stroke: #333333; stroke-width: 1.2;"/><text fill="#000000" font-family="Arial" font-size="13" lengthAdjust="spacingAndGlyphs" textLength="88" x="338.97" y="917.02">Logs (private)</text><text fill="#000000" font-family="Arial" font-size="13" lengthAdjust="spacingAndGlyphs" textLength="60" x="352.97" y="932.1528">1514/TCP</text><!--MD5=[22a24e55f588eaf82bab63dde52b2e44]
link Admin to WG--><path d="M266.97,82.1631 C266.97,118.2331 266.97,186.1431 266.97,245.5431 " fill="none" id="Admin-&gt;WG" style="stroke: #333333; stroke-width: 1.2;"/><polygon fill="#333333" points="266.97,250.8931,270.97,241.8931,266.97,245.8931,262.97,241.8931,266.97,250.8931" style="stroke: #333333; stroke-width: 1.2;"/><text fill="#000000" font-family="Arial" font-size="13" lengthAdjust="spacingAndGlyphs" textLength="110" x="267.97" y="125.02">WireGuard tunnel</text><text fill="#000000" font-family="Arial" font-size="13" lengthAdjust="spacingAndGlyphs" textLength="72" x="286.97" y="140.1528">51820/UDP</text><!--MD5=[710267d3aeef395b771e0a5686a73847]
link WG to Sensor--><path d="M154.92,447.2331 C141.96,462.3531 130.66,479.0331 122.97,496.9531 C108.54,530.6031 117.4,565.0631 136.09,596.3531 " fill="none" id="WG-&gt;Sensor" style="stroke: #333333; stroke-width: 1.2;"/><polygon fill="#333333" points="138.91,600.9431,137.6089,591.1806,136.2935,596.6824,130.7917,595.367,138.91,600.9431" style="stroke: #333333; stroke-width: 1.2;"/><text fill="#000000" font-family="Arial" font-size="13" lengthAdjust="spacingAndGlyphs" textLength="131" x="123.97" y="510.02">Admin SSH (private)</text><text fill="#000000" font-family="Arial" font-size="13" lengthAdjust="spacingAndGlyphs" textLength="60" x="159.47" y="525.1528">2222/TCP</text><!--MD5=[34f84324b0bc3913d38e45b7265b1e3c]
link WG to SIEM--><path d="M349.95,467.1831 C368.26,495.6431 385.58,527.3131 396.97,558.9531 C454.04,717.4431 453.09,768.3731 435.97,935.9531 C435.15,944.0031 434.11,952.2231 432.92,960.5031 " fill="none" id="WG-&gt;SIEM" style="stroke: #333333; stroke-width: 1.2;"/><polygon fill="#333333" points="432.15,965.6731,437.4396,957.3653,432.891,960.7283,429.528,956.1797,432.15,965.6731" style="stroke: #333333; stroke-width: 1.2;"/><text fill="#000000" font-family="Arial" font-size="13" lengthAdjust="spacingAndGlyphs" textLength="176" x="446.97" y="712.52">Dashboard access (private)</text><text fill="#000000" font-family="Arial" font-size="13" lengthAdjust="spacingAndGlyphs" textLength="59" x="505.47" y="727.6528">(via VPN)</text><!--MD5=[5177e19ed54aef220575cc0e7385a643]
link Sensor to GMN16--><path d="M343.69,558.5931 C360.09,540.2731 378.98,524.1531 400.47,512.9531 C489.15,466.7331 535.92,468.4631 625.47,512.9531 C695.6,547.7931 742.27,631.6731 764.31,679.8331 " fill="none" id="Sensor-GMN16" style="stroke: #333333; stroke-width: 1.2; stroke-dasharray: 7.0,7.0;"/><!--MD5=[cc5db739c798424f129279b5a2e1f1bb]
@startuml
skinparam backgroundColor white
skinparam shadowing false
skinparam defaultFontName Arial
skinparam ArrowThickness 1.2
skinparam ArrowColor #333333
skinparam RectangleBorderColor #333333
skinparam RectangleFontColor #111111
skinparam RectangleRoundCorner 12
skinparam wrapWidth 220
skinparam maxMessageSize 180

title Cloud Honeypot - WireGuard - SIEM (OCI ARM64 - Zero Trust)

cloud "INTERNET" as Internet
rectangle "Admin User\n(Laptop)" as Admin

rectangle "Oracle Cloud Infrastructure (OCI)\nAlways Free Tier - ARM64 (Ampere A1)\nVCN: 10.0.1.0/24  |  Subnet: 10.0.1.0/24" as OCI {

  together {
    rectangle "SENSOR (Public Instance)\nOracle Linux 9 (ARM64)\nPrivate IP: 10.0.1.37\nPublic IP: x.x.x.x\n\nHoneypots exposed:\n- 22/TCP  Cowrie (SSH honeypot)\n- 80/TCP  DVWA (Web honeypot)\n\nAdmin (real SSH):\n- 2222/TCP (VPN-only)\n\nTelemetry:\n- Wazuh Agent\n- Docker containers (Cowrie + DVWA)" as Sensor

    rectangle "WIREGUARD (Public Instance)\nUbuntu 24.04 (ARM64)\nPrivate IP: 10.0.1.40\nPublic IP: x.x.x.x\n\nVPN Entry:\n- 51820/UDP\n\nRole:\n- Single admin entry point\n- Private access to Sensor & SIEM" as WG
  }

  rectangle "SIEM (Private Instance - No Public IP)\nUbuntu 24.04 (ARM64)\nPrivate IP: 10.0.1.38\n\nComponents:\n- Wazuh Manager\n- Wazuh Dashboard\n\nReceives logs:\n- 1514/TCP (Wazuh)\n\nSecurity:\n- No Internet Exposure\n- Access only via VPN / private network" as SIEM

}


Internet - -> Sensor : Attack traffic\n22/TCP (Cowrie)\n80/TCP (DVWA)
Internet - -> WG : VPN entry\n51820/UDP

Sensor - -> SIEM : Logs (private)\n1514/TCP

Admin - -> WG : WireGuard tunnel\n51820/UDP
WG - -> Sensor : Admin SSH (private)\n2222/TCP
WG - -> SIEM : Dashboard access (private)\n(via VPN)

note right of Sensor
Hardening:
- Real SSH moved to 2222
- Port 22 is honeypot (Cowrie)
- Admin access only through VPN
end note

note bottom of SIEM
Zero Trust:
- SIEM has NO public IP
- Private-only access
- Least privilege rules in OCI
end note

@enduml

PlantUML version 1.2020.02(Sun Mar 01 10:22:07 UTC 2020)
(GPL source distribution)
Java Runtime: OpenJDK Runtime Environment
JVM: OpenJDK 64-Bit Server VM
Java Version: 17.0.18+8
Operating System: Linux
Default Encoding: UTF-8
Language: en
Country: null
--></g></svg>